<svg width="24" height="24" viewBox="0 0 24 24" fill="none" xmlns="http://www.w3.org/2000/svg">
<path d="M3.31573 13.781L4.5327 13.4956L3.31573 13.781ZM3.31573 8.32399L4.5327 8.60945L3.31573 8.32399ZM18.7893 8.324L20.0063 8.03853L18.7893 8.324ZM18.7893 13.781L20.0063 14.0665L18.7893 13.781ZM13.781 18.7893L13.4956 17.5723L13.781 18.7893ZM8.324 18.7893L8.03854 20.0063L8.324 18.7893ZM8.324 3.31572L8.03854 2.09875L8.324 3.31572ZM13.781 3.31572L14.0665 2.09875L13.781 3.31572ZM20.1161 21.8839C20.6043 22.372 21.3957 22.372 21.8839 21.8839C22.372 21.3957 22.372 20.6043 21.8839 20.1161L20.1161 21.8839ZM4.5327 13.4956C4.15577 11.8887 4.15577 10.2164 4.5327 8.60945L2.09876 8.03853C1.63375 10.021 1.63375 12.0841 2.09876 14.0665L4.5327 13.4956ZM17.5724 8.60946C17.9493 10.2164 17.9493 11.8887 17.5724 13.4956L20.0063 14.0665C20.4713 12.0841 20.4713 10.021 20.0063 8.03853L17.5724 8.60946ZM13.4956 17.5723C11.8887 17.9493 10.2164 17.9493 8.60946 17.5723L8.03854 20.0063C10.021 20.4713 12.0841 20.4713 14.0665 20.0063L13.4956 17.5723ZM8.60946 4.53269C10.2164 4.15576 11.8887 4.15576 13.4956 4.53269L14.0665 2.09875C12.0841 1.63374 10.021 1.63374 8.03854 2.09875L8.60946 4.53269ZM8.60946 17.5723C6.58663 17.0979 5.00719 15.5184 4.5327 13.4956L2.09876 14.0665C2.79009 17.0137 5.09131 19.315 8.03854 20.0063L8.60946 17.5723ZM14.0665 20.0063C17.0137 19.315 19.315 17.0137 20.0063 14.0665L17.5724 13.4956C17.0979 15.5184 15.5184 17.0979 13.4956 17.5723L14.0665 20.0063ZM13.4956 4.53269C15.5184 5.00718 17.0979 6.58662 17.5724 8.60946L20.0063 8.03853C19.315 5.0913 17.0137 2.79008 14.0665 2.09875L13.4956 4.53269ZM8.03854 2.09875C5.09131 2.79008 2.79009 5.0913 2.09876 8.03853L4.5327 8.60945C5.00719 6.58662 6.58663 5.00718 8.60946 4.53269L8.03854 2.09875ZM16.4513 18.219L20.1161 21.8839L21.8839 20.1161L18.219 16.4513L16.4513 18.219Z" fill="#34364A"/>
</svg>
